<mxfile host="app.diagrams.net" agent="Mozilla/5.0 (Windows NT 10.0; Win64; x64) AppleWebKit/537.36 (KHTML, like Gecko) Chrome/130.0.0.0 Safari/537.36" version="24.8.4">
  <diagram name="PÃ¡gina-1" id="P6wIPTdrm4d3LqzMZhjD">
    <mxGraphModel grid="1" page="1" gridSize="10" guides="1" tooltips="1" connect="1" arrows="1" fold="1" pageScale="1" pageWidth="827" pageHeight="1169" math="0" shadow="0">
      <root>
        <mxCell id="0" />
        <mxCell id="1" parent="0" />
        <mxCell id="vNyq4lO3WOMn-MIggR5T-1" value=":Usuario" style="rounded=0;whiteSpace=wrap;html=1;" vertex="1" parent="1">
          <mxGeometry x="-770" y="70" width="120" height="60" as="geometry" />
        </mxCell>
        <mxCell id="vNyq4lO3WOMn-MIggR5T-2" value="CPV:ControlProcesarVenta" style="rounded=0;whiteSpace=wrap;html=1;" vertex="1" parent="1">
          <mxGeometry x="-520" y="70" width="150" height="60" as="geometry" />
        </mxCell>
        <mxCell id="vNyq4lO3WOMn-MIggR5T-3" value="cp:&amp;lt;&amp;lt;Singleton&amp;gt;&amp;gt;CatalogoDeProductos" style="rounded=0;whiteSpace=wrap;html=1;" vertex="1" parent="1">
          <mxGeometry x="-350" y="70" width="210" height="60" as="geometry" />
        </mxCell>
        <mxCell id="vNyq4lO3WOMn-MIggR5T-4" value="especif[i]:EspecificacionDelProducto" style="rounded=0;whiteSpace=wrap;html=1;" vertex="1" parent="1">
          <mxGeometry x="-110" y="70" width="200" height="60" as="geometry" />
        </mxCell>
        <mxCell id="vNyq4lO3WOMn-MIggR5T-5" value="" style="endArrow=none;dashed=1;html=1;dashPattern=1 3;strokeWidth=2;rounded=0;entryX=0.5;entryY=1;entryDx=0;entryDy=0;" edge="1" parent="1" target="vNyq4lO3WOMn-MIggR5T-1">
          <mxGeometry width="50" height="50" relative="1" as="geometry">
            <mxPoint x="-720" y="1050" as="sourcePoint" />
            <mxPoint x="-534" y="120" as="targetPoint" />
            <Array as="points">
              <mxPoint x="-720" y="980" />
            </Array>
          </mxGeometry>
        </mxCell>
        <mxCell id="vNyq4lO3WOMn-MIggR5T-6" value="" style="endArrow=none;dashed=1;html=1;dashPattern=1 3;strokeWidth=2;rounded=0;entryX=0.5;entryY=1;entryDx=0;entryDy=0;" edge="1" parent="1" source="ptowHJw-4ceBGd2xwlsr-14">
          <mxGeometry width="50" height="50" relative="1" as="geometry">
            <mxPoint x="-10.5" y="510" as="sourcePoint" />
            <mxPoint x="-10.5" y="130" as="targetPoint" />
          </mxGeometry>
        </mxCell>
        <mxCell id="vNyq4lO3WOMn-MIggR5T-7" value="" style="endArrow=none;dashed=1;html=1;dashPattern=1 3;strokeWidth=2;rounded=0;entryX=0.5;entryY=1;entryDx=0;entryDy=0;" edge="1" parent="1" source="pVd79FZLp4UYmvtCs-2z-12">
          <mxGeometry width="50" height="50" relative="1" as="geometry">
            <mxPoint x="-443" y="775.8823529411765" as="sourcePoint" />
            <mxPoint x="-443" y="130" as="targetPoint" />
          </mxGeometry>
        </mxCell>
        <mxCell id="vNyq4lO3WOMn-MIggR5T-9" value="" style="endArrow=none;dashed=1;html=1;dashPattern=1 3;strokeWidth=2;rounded=0;" edge="1" parent="1" source="ptowHJw-4ceBGd2xwlsr-2">
          <mxGeometry width="50" height="50" relative="1" as="geometry">
            <mxPoint x="-248" y="509" as="sourcePoint" />
            <mxPoint x="-248" y="130" as="targetPoint" />
          </mxGeometry>
        </mxCell>
        <mxCell id="ptowHJw-4ceBGd2xwlsr-3" value="" style="endArrow=none;dashed=1;html=1;dashPattern=1 3;strokeWidth=2;rounded=0;" edge="1" parent="1" target="ptowHJw-4ceBGd2xwlsr-2">
          <mxGeometry width="50" height="50" relative="1" as="geometry">
            <mxPoint x="-248" y="509" as="sourcePoint" />
            <mxPoint x="-248" y="130" as="targetPoint" />
          </mxGeometry>
        </mxCell>
        <mxCell id="ptowHJw-4ceBGd2xwlsr-2" value="" style="rounded=0;whiteSpace=wrap;html=1;fillColor=default;" vertex="1" parent="1">
          <mxGeometry x="-256" y="190" width="10" height="260" as="geometry" />
        </mxCell>
        <mxCell id="ptowHJw-4ceBGd2xwlsr-4" value="" style="endArrow=classic;html=1;rounded=0;exitX=1.1;exitY=0.076;exitDx=0;exitDy=0;exitPerimeter=0;" edge="1" parent="1">
          <mxGeometry width="50" height="50" relative="1" as="geometry">
            <mxPoint x="-439" y="185.08000000000004" as="sourcePoint" />
            <mxPoint x="-254" y="185" as="targetPoint" />
          </mxGeometry>
        </mxCell>
        <mxCell id="ptowHJw-4ceBGd2xwlsr-5" value="BuscarProducto (idproducto : String)" style="text;html=1;align=center;verticalAlign=middle;whiteSpace=wrap;rounded=0;" vertex="1" parent="1">
          <mxGeometry x="-420" y="150" width="120" height="30" as="geometry" />
        </mxCell>
        <mxCell id="ptowHJw-4ceBGd2xwlsr-8" value="e&lt;span style=&quot;background-color: initial;&quot;&gt;p:EspecificacionDelProducto&lt;/span&gt;" style="rounded=0;whiteSpace=wrap;html=1;" vertex="1" parent="1">
          <mxGeometry x="210" y="70" width="200" height="60" as="geometry" />
        </mxCell>
        <mxCell id="ptowHJw-4ceBGd2xwlsr-9" value="" style="endArrow=none;dashed=1;html=1;dashPattern=1 3;strokeWidth=2;rounded=0;entryX=0.5;entryY=1;entryDx=0;entryDy=0;" edge="1" parent="1" source="pVd79FZLp4UYmvtCs-2z-10">
          <mxGeometry width="50" height="50" relative="1" as="geometry">
            <mxPoint x="310" y="620" as="sourcePoint" />
            <mxPoint x="309.5" y="130" as="targetPoint" />
          </mxGeometry>
        </mxCell>
        <mxCell id="ptowHJw-4ceBGd2xwlsr-10" value="ventaActual:Venta" style="rounded=0;whiteSpace=wrap;html=1;" vertex="1" parent="1">
          <mxGeometry x="450" y="70" width="200" height="60" as="geometry" />
        </mxCell>
        <mxCell id="ptowHJw-4ceBGd2xwlsr-11" value="" style="endArrow=none;dashed=1;html=1;dashPattern=1 3;strokeWidth=2;rounded=0;entryX=0.5;entryY=1;entryDx=0;entryDy=0;" edge="1" parent="1" source="pVd79FZLp4UYmvtCs-2z-20">
          <mxGeometry width="50" height="50" relative="1" as="geometry">
            <mxPoint x="550" y="510" as="sourcePoint" />
            <mxPoint x="550" y="130" as="targetPoint" />
          </mxGeometry>
        </mxCell>
        <mxCell id="ptowHJw-4ceBGd2xwlsr-12" value="&amp;lt;&amp;lt;multiobjeto&amp;gt;&amp;gt;lineas:LineasDeVenta" style="rounded=0;whiteSpace=wrap;html=1;" vertex="1" parent="1">
          <mxGeometry x="710" y="70" width="200" height="60" as="geometry" />
        </mxCell>
        <mxCell id="ptowHJw-4ceBGd2xwlsr-13" value="" style="endArrow=none;dashed=1;html=1;dashPattern=1 3;strokeWidth=2;rounded=0;entryX=0.5;entryY=1;entryDx=0;entryDy=0;" edge="1" parent="1" source="pVd79FZLp4UYmvtCs-2z-24">
          <mxGeometry width="50" height="50" relative="1" as="geometry">
            <mxPoint x="809.5" y="510" as="sourcePoint" />
            <mxPoint x="809.5" y="130" as="targetPoint" />
          </mxGeometry>
        </mxCell>
        <mxCell id="ptowHJw-4ceBGd2xwlsr-15" value="" style="endArrow=none;dashed=1;html=1;dashPattern=1 3;strokeWidth=2;rounded=0;entryX=0.5;entryY=1;entryDx=0;entryDy=0;" edge="1" parent="1" target="ptowHJw-4ceBGd2xwlsr-14">
          <mxGeometry width="50" height="50" relative="1" as="geometry">
            <mxPoint x="-10.5" y="510" as="sourcePoint" />
            <mxPoint x="-10.5" y="130" as="targetPoint" />
          </mxGeometry>
        </mxCell>
        <mxCell id="ptowHJw-4ceBGd2xwlsr-14" value="" style="rounded=0;whiteSpace=wrap;html=1;" vertex="1" parent="1">
          <mxGeometry x="-15" y="290" width="10" height="45" as="geometry" />
        </mxCell>
        <mxCell id="ptowHJw-4ceBGd2xwlsr-16" value="" style="endArrow=classic;html=1;rounded=0;entryX=0;entryY=0;entryDx=0;entryDy=0;" edge="1" parent="1" target="ptowHJw-4ceBGd2xwlsr-14">
          <mxGeometry width="50" height="50" relative="1" as="geometry">
            <mxPoint x="-240" y="290" as="sourcePoint" />
            <mxPoint x="-10" y="290" as="targetPoint" />
          </mxGeometry>
        </mxCell>
        <mxCell id="ptowHJw-4ceBGd2xwlsr-17" value="getId ()" style="text;html=1;align=center;verticalAlign=middle;whiteSpace=wrap;rounded=0;" vertex="1" parent="1">
          <mxGeometry x="-160" y="260" width="60" height="30" as="geometry" />
        </mxCell>
        <mxCell id="ptowHJw-4ceBGd2xwlsr-18" value="" style="endArrow=none;dashed=1;html=1;rounded=0;startArrow=classic;startFill=1;" edge="1" parent="1">
          <mxGeometry width="50" height="50" relative="1" as="geometry">
            <mxPoint x="-250" y="335" as="sourcePoint" />
            <mxPoint x="-15" y="335" as="targetPoint" />
            <Array as="points" />
          </mxGeometry>
        </mxCell>
        <mxCell id="ptowHJw-4ceBGd2xwlsr-19" value="id : String" style="text;html=1;align=center;verticalAlign=middle;whiteSpace=wrap;rounded=0;" vertex="1" parent="1">
          <mxGeometry x="-170" y="305" width="100" height="30" as="geometry" />
        </mxCell>
        <mxCell id="pVd79FZLp4UYmvtCs-2z-4" value="" style="endArrow=open;endFill=1;endSize=12;html=1;rounded=0;entryX=1;entryY=0.75;entryDx=0;entryDy=0;" edge="1" parent="1">
          <mxGeometry width="160" relative="1" as="geometry">
            <mxPoint x="-250" y="450" as="sourcePoint" />
            <mxPoint x="-440" y="450" as="targetPoint" />
          </mxGeometry>
        </mxCell>
        <mxCell id="ptowHJw-4ceBGd2xwlsr-20" value="Bucle" style="shape=umlFrame;whiteSpace=wrap;html=1;pointerEvents=0;" vertex="1" parent="1">
          <mxGeometry x="-360" y="210" width="450" height="180" as="geometry" />
        </mxCell>
        <mxCell id="pVd79FZLp4UYmvtCs-2z-8" value="&amp;lt;&amp;lt;ep: EspecificacionDelProducto&amp;gt;&amp;gt;" style="text;html=1;align=center;verticalAlign=middle;whiteSpace=wrap;rounded=0;" vertex="1" parent="1">
          <mxGeometry x="-432" y="410" width="176" height="30" as="geometry" />
        </mxCell>
        <mxCell id="ptowHJw-4ceBGd2xwlsr-21" value="si id = idproducto&lt;div&gt;ep = espicif[i]&lt;/div&gt;&lt;div&gt;cortar iteraciÃ³n&lt;/div&gt;" style="shape=note;whiteSpace=wrap;html=1;backgroundOutline=1;darkOpacity=0.05;" vertex="1" parent="1">
          <mxGeometry x="-185" y="430" width="110" height="70" as="geometry" />
        </mxCell>
        <mxCell id="pVd79FZLp4UYmvtCs-2z-11" value="" style="endArrow=none;dashed=1;html=1;dashPattern=1 3;strokeWidth=2;rounded=0;entryX=0.5;entryY=1;entryDx=0;entryDy=0;" edge="1" parent="1" target="pVd79FZLp4UYmvtCs-2z-12">
          <mxGeometry width="50" height="50" relative="1" as="geometry">
            <mxPoint x="-445" y="970" as="sourcePoint" />
            <mxPoint x="-443" y="130" as="targetPoint" />
          </mxGeometry>
        </mxCell>
        <mxCell id="ptowHJw-4ceBGd2xwlsr-22" value="" style="endArrow=none;dashed=1;html=1;dashPattern=1 3;strokeWidth=2;rounded=0;exitX=1.2;exitY=0.688;exitDx=0;exitDy=0;exitPerimeter=0;entryX=0;entryY=0;entryDx=0;entryDy=0;entryPerimeter=0;" edge="1" parent="1" source="ptowHJw-4ceBGd2xwlsr-2" target="ptowHJw-4ceBGd2xwlsr-21">
          <mxGeometry width="50" height="50" relative="1" as="geometry">
            <mxPoint x="-210" y="570" as="sourcePoint" />
            <mxPoint x="-160" y="520" as="targetPoint" />
          </mxGeometry>
        </mxCell>
        <mxCell id="ptowHJw-4ceBGd2xwlsr-30" value="create (ep : EspecificacionDelProducto)&amp;nbsp;" style="endArrow=classic;dashed=1;html=1;rounded=0;labelPosition=center;verticalLabelPosition=top;align=center;verticalAlign=bottom;startArrow=none;startFill=0;endFill=1;entryX=0;entryY=0.067;entryDx=0;entryDy=0;entryPerimeter=0;" edge="1" parent="1" target="pVd79FZLp4UYmvtCs-2z-18">
          <mxGeometry y="10" width="50" height="50" relative="1" as="geometry">
            <mxPoint x="-440" y="730" as="sourcePoint" />
            <mxPoint x="360" y="730" as="targetPoint" />
            <mxPoint as="offset" />
          </mxGeometry>
        </mxCell>
        <mxCell id="ptowHJw-4ceBGd2xwlsr-33" value="" style="endArrow=classic;html=1;rounded=0;entryX=0;entryY=0;entryDx=0;entryDy=5;entryPerimeter=0;" edge="1" parent="1" source="pVd79FZLp4UYmvtCs-2z-12" target="pVd79FZLp4UYmvtCs-2z-20">
          <mxGeometry width="50" height="50" relative="1" as="geometry">
            <mxPoint x="-440" y="850" as="sourcePoint" />
            <mxPoint x="552.3529411764705" y="840" as="targetPoint" />
          </mxGeometry>
        </mxCell>
        <mxCell id="pVd79FZLp4UYmvtCs-2z-18" value="lv:LineaDeVenta" style="shape=umlLifeline;perimeter=lifelinePerimeter;whiteSpace=wrap;html=1;container=1;dropTarget=0;collapsible=0;recursiveResize=0;outlineConnect=0;portConstraint=eastwest;newEdgeStyle={&quot;curved&quot;:0,&quot;rounded&quot;:0};" vertex="1" parent="1">
          <mxGeometry x="380" y="710" width="140" height="300" as="geometry" />
        </mxCell>
        <mxCell id="ptowHJw-4ceBGd2xwlsr-36" value="" style="endArrow=none;dashed=1;html=1;rounded=0;startArrow=classic;startFill=1;" edge="1" parent="1" source="pVd79FZLp4UYmvtCs-2z-12">
          <mxGeometry width="50" height="50" relative="1" as="geometry">
            <mxPoint x="-440" y="850" as="sourcePoint" />
            <mxPoint x="545" y="850" as="targetPoint" />
          </mxGeometry>
        </mxCell>
        <mxCell id="pVd79FZLp4UYmvtCs-2z-24" value="" style="html=1;points=[[0,0,0,0,5],[0,1,0,0,-5],[1,0,0,0,5],[1,1,0,0,-5]];perimeter=orthogonalPerimeter;outlineConnect=0;targetShapes=umlLifeline;portConstraint=eastwest;newEdgeStyle={&quot;curved&quot;:0,&quot;rounded&quot;:0};" vertex="1" parent="1">
          <mxGeometry x="805" y="800" width="10" height="40" as="geometry" />
        </mxCell>
        <mxCell id="pVd79FZLp4UYmvtCs-2z-14" value="" style="endArrow=none;dashed=1;html=1;dashPattern=1 3;strokeWidth=2;rounded=0;entryX=0.5;entryY=1;entryDx=0;entryDy=0;" edge="1" parent="1" source="pVd79FZLp4UYmvtCs-2z-16" target="pVd79FZLp4UYmvtCs-2z-10">
          <mxGeometry width="50" height="50" relative="1" as="geometry">
            <mxPoint x="310" y="770" as="sourcePoint" />
            <mxPoint x="309.5" y="130" as="targetPoint" />
          </mxGeometry>
        </mxCell>
        <mxCell id="pVd79FZLp4UYmvtCs-2z-16" value="" style="html=1;points=[[0,0,0,0,5],[0,1,0,0,-5],[1,0,0,0,5],[1,1,0,0,-5]];perimeter=orthogonalPerimeter;outlineConnect=0;targetShapes=umlLifeline;portConstraint=eastwest;newEdgeStyle={&quot;curved&quot;:0,&quot;rounded&quot;:0};" vertex="1" parent="1">
          <mxGeometry x="305" y="640" width="10" height="40" as="geometry" />
        </mxCell>
        <mxCell id="pVd79FZLp4UYmvtCs-2z-10" value="" style="html=1;points=[[0,0,0,0,5],[0,1,0,0,-5],[1,0,0,0,5],[1,1,0,0,-5]];perimeter=orthogonalPerimeter;outlineConnect=0;targetShapes=umlLifeline;portConstraint=eastwest;newEdgeStyle={&quot;curved&quot;:0,&quot;rounded&quot;:0};" vertex="1" parent="1">
          <mxGeometry x="305" y="540" width="10" height="40" as="geometry" />
        </mxCell>
        <mxCell id="pVd79FZLp4UYmvtCs-2z-17" value="" style="endArrow=none;dashed=1;html=1;dashPattern=1 3;strokeWidth=2;rounded=0;entryX=0.5;entryY=1;entryDx=0;entryDy=0;" edge="1" parent="1" target="pVd79FZLp4UYmvtCs-2z-16">
          <mxGeometry width="50" height="50" relative="1" as="geometry">
            <mxPoint x="310" y="710" as="sourcePoint" />
            <mxPoint x="310" y="615" as="targetPoint" />
          </mxGeometry>
        </mxCell>
        <mxCell id="ptowHJw-4ceBGd2xwlsr-38" value="" style="endArrow=none;dashed=1;html=1;dashPattern=1 3;strokeWidth=2;rounded=0;" edge="1" parent="1" source="pVd79FZLp4UYmvtCs-2z-12">
          <mxGeometry width="50" height="50" relative="1" as="geometry">
            <mxPoint x="-380" y="950" as="sourcePoint" />
            <mxPoint x="-320" y="905" as="targetPoint" />
          </mxGeometry>
        </mxCell>
        <mxCell id="ptowHJw-4ceBGd2xwlsr-27" value="GetPrecioVenta ()" style="endArrow=classic;html=1;rounded=0;" edge="1" parent="1" source="pVd79FZLp4UYmvtCs-2z-12">
          <mxGeometry x="-0.0067" y="10" width="50" height="50" relative="1" as="geometry">
            <mxPoint x="215" y="640" as="sourcePoint" />
            <mxPoint x="305" y="640" as="targetPoint" />
            <mxPoint as="offset" />
          </mxGeometry>
        </mxCell>
        <mxCell id="ptowHJw-4ceBGd2xwlsr-35" value="" style="endArrow=none;dashed=1;html=1;rounded=0;startArrow=classic;startFill=1;" edge="1" parent="1" source="pVd79FZLp4UYmvtCs-2z-20" target="pVd79FZLp4UYmvtCs-2z-24">
          <mxGeometry width="50" height="50" relative="1" as="geometry">
            <mxPoint x="695" y="869.05" as="sourcePoint" />
            <mxPoint x="805" y="869.05" as="targetPoint" />
            <Array as="points">
              <mxPoint x="690" y="840" />
            </Array>
          </mxGeometry>
        </mxCell>
        <mxCell id="ptowHJw-4ceBGd2xwlsr-28" value="&amp;lt;&amp;lt;Precio: real&amp;gt;&amp;gt;" style="endArrow=none;dashed=1;html=1;rounded=0;labelPosition=center;verticalLabelPosition=top;align=center;verticalAlign=bottom;startArrow=classic;startFill=1;" edge="1" parent="1" source="pVd79FZLp4UYmvtCs-2z-12">
          <mxGeometry x="-0.0067" width="50" height="50" relative="1" as="geometry">
            <mxPoint x="205" y="680" as="sourcePoint" />
            <mxPoint x="305" y="680" as="targetPoint" />
            <mxPoint as="offset" />
          </mxGeometry>
        </mxCell>
        <mxCell id="ptowHJw-4ceBGd2xwlsr-39" value="Subtotal = Subtotal + (Cantidad * Precio)" style="shape=note;whiteSpace=wrap;html=1;backgroundOutline=1;darkOpacity=0.05;" vertex="1" parent="1">
          <mxGeometry x="-320" y="870" width="220" height="70" as="geometry" />
        </mxCell>
        <mxCell id="ptowHJw-4ceBGd2xwlsr-23" value="GetDescripcion ()" style="endArrow=classic;html=1;rounded=0;labelPosition=center;verticalLabelPosition=top;align=center;verticalAlign=bottom;" edge="1" parent="1" target="pVd79FZLp4UYmvtCs-2z-10">
          <mxGeometry width="50" height="50" relative="1" as="geometry">
            <mxPoint x="-440" y="540" as="sourcePoint" />
            <mxPoint x="300" y="540" as="targetPoint" />
            <mxPoint as="offset" />
          </mxGeometry>
        </mxCell>
        <mxCell id="pVd79FZLp4UYmvtCs-2z-19" value="" style="endArrow=none;dashed=1;html=1;dashPattern=1 3;strokeWidth=2;rounded=0;entryX=0.5;entryY=1;entryDx=0;entryDy=0;" edge="1" parent="1" target="pVd79FZLp4UYmvtCs-2z-20">
          <mxGeometry width="50" height="50" relative="1" as="geometry">
            <mxPoint x="550" y="510" as="sourcePoint" />
            <mxPoint x="550" y="130" as="targetPoint" />
          </mxGeometry>
        </mxCell>
        <mxCell id="pVd79FZLp4UYmvtCs-2z-20" value="" style="html=1;points=[[0,0,0,0,5],[0,1,0,0,-5],[1,0,0,0,5],[1,1,0,0,-5]];perimeter=orthogonalPerimeter;outlineConnect=0;targetShapes=umlLifeline;portConstraint=eastwest;newEdgeStyle={&quot;curved&quot;:0,&quot;rounded&quot;:0};" vertex="1" parent="1">
          <mxGeometry x="545" y="800" width="10" height="50" as="geometry" />
        </mxCell>
        <mxCell id="ptowHJw-4ceBGd2xwlsr-37" value="&amp;lt;&amp;lt;descripciÃ³n + subtotal&amp;gt;&amp;gt;" style="endArrow=none;dashed=1;html=1;rounded=0;labelPosition=center;verticalLabelPosition=top;align=center;verticalAlign=bottom;startArrow=classic;startFill=1;" edge="1" parent="1">
          <mxGeometry width="50" height="50" relative="1" as="geometry">
            <mxPoint x="-720" y="970" as="sourcePoint" />
            <mxPoint x="-450" y="970" as="targetPoint" />
          </mxGeometry>
        </mxCell>
        <mxCell id="pVd79FZLp4UYmvtCs-2z-21" value="agregarLinea (lv: LineaDeVenta)" style="text;html=1;align=center;verticalAlign=middle;whiteSpace=wrap;rounded=0;" vertex="1" parent="1">
          <mxGeometry x="-100" y="770" width="260" height="30" as="geometry" />
        </mxCell>
        <mxCell id="pVd79FZLp4UYmvtCs-2z-12" value="" style="html=1;points=[[0,0,0,0,5],[0,1,0,0,-5],[1,0,0,0,5],[1,1,0,0,-5]];perimeter=orthogonalPerimeter;outlineConnect=0;targetShapes=umlLifeline;portConstraint=eastwest;newEdgeStyle={&quot;curved&quot;:0,&quot;rounded&quot;:0};" vertex="1" parent="1">
          <mxGeometry x="-450" y="160" width="10" height="810" as="geometry" />
        </mxCell>
        <mxCell id="pVd79FZLp4UYmvtCs-2z-23" value="" style="endArrow=none;dashed=1;html=1;dashPattern=1 3;strokeWidth=2;rounded=0;" edge="1" parent="1" source="pVd79FZLp4UYmvtCs-2z-24">
          <mxGeometry width="50" height="50" relative="1" as="geometry">
            <mxPoint x="809.5" y="510" as="sourcePoint" />
            <mxPoint x="810" y="1030" as="targetPoint" />
          </mxGeometry>
        </mxCell>
        <mxCell id="ptowHJw-4ceBGd2xwlsr-24" value="" style="endArrow=none;dashed=1;html=1;rounded=0;labelPosition=center;verticalLabelPosition=top;align=center;verticalAlign=bottom;startArrow=classic;startFill=1;entryX=0.5;entryY=1;entryDx=0;entryDy=0;entryPerimeter=0;" edge="1" parent="1" source="pVd79FZLp4UYmvtCs-2z-12" target="pVd79FZLp4UYmvtCs-2z-10">
          <mxGeometry width="50" height="50" relative="1" as="geometry">
            <mxPoint x="-432" y="570" as="sourcePoint" />
            <mxPoint x="300" y="580" as="targetPoint" />
          </mxGeometry>
        </mxCell>
        <mxCell id="ptowHJw-4ceBGd2xwlsr-26" value="&amp;lt;&amp;lt;Descripcion : String&amp;gt;&amp;gt;" style="edgeLabel;html=1;align=center;verticalAlign=middle;resizable=0;points=[];" connectable="0" vertex="1" parent="ptowHJw-4ceBGd2xwlsr-24">
          <mxGeometry x="-0.0444" y="-3" relative="1" as="geometry">
            <mxPoint x="16" y="-13" as="offset" />
          </mxGeometry>
        </mxCell>
        <mxCell id="pVd79FZLp4UYmvtCs-2z-25" value="" style="endArrow=none;dashed=1;html=1;dashPattern=1 3;strokeWidth=2;rounded=0;" edge="1" parent="1" target="pVd79FZLp4UYmvtCs-2z-24">
          <mxGeometry width="50" height="50" relative="1" as="geometry">
            <mxPoint x="809.5" y="510" as="sourcePoint" />
            <mxPoint x="810" y="1030" as="targetPoint" />
          </mxGeometry>
        </mxCell>
        <mxCell id="ptowHJw-4ceBGd2xwlsr-40" value="add (lv : LineaDeVenta)" style="endArrow=classic;html=1;rounded=0;labelPosition=center;verticalLabelPosition=top;align=center;verticalAlign=bottom;" edge="1" parent="1" target="pVd79FZLp4UYmvtCs-2z-24">
          <mxGeometry width="50" height="50" relative="1" as="geometry">
            <mxPoint x="560" y="800" as="sourcePoint" />
            <mxPoint x="789" y="800" as="targetPoint" />
          </mxGeometry>
        </mxCell>
        <mxCell id="pVd79FZLp4UYmvtCs-2z-26" value="insertarArticulo(artId: String cantidad: real)" style="text;html=1;align=center;verticalAlign=middle;whiteSpace=wrap;rounded=0;" vertex="1" parent="1">
          <mxGeometry x="-710" y="130" width="270" height="30" as="geometry" />
        </mxCell>
        <mxCell id="pVd79FZLp4UYmvtCs-2z-27" value="" style="endArrow=classic;html=1;rounded=0;entryX=0;entryY=0;entryDx=0;entryDy=5;entryPerimeter=0;" edge="1" parent="1" target="pVd79FZLp4UYmvtCs-2z-12">
          <mxGeometry width="50" height="50" relative="1" as="geometry">
            <mxPoint x="-710" y="165" as="sourcePoint" />
            <mxPoint x="-620" y="170" as="targetPoint" />
          </mxGeometry>
        </mxCell>
      </root>
    </mxGraphModel>
  </diagram>
</mxfile>
